<svg xmlns="http://www.w3.org/2000/svg" viewBox="0 0 32 32">
  <!-- Simplified Rooster Profile -->
  <!-- Comb (Terracotta) -->
  <path fill="#A94B32" d="M12 10c0-3 2-5 4-5s4 2 4 5l-8 0zM17 8c0-3 2-5 4-5s4 2 4 5l-8 0zM22 10c0-3 2-4 3-4s3 2 3 4l-6 0z"/>
  <!-- Head & Neck (Forest Green) -->
  <path fill="#416047" d="M22 10c-6 0-11 5-11 11s5 11 11 11h2l-2-11c0-6 0-11 0-11z"/>
  <!-- Beak (Terracotta) -->
  <path fill="#A94B32" d="M11 19l-4 3 4 3z"/>
  <!-- Wattle (Terracotta) -->
  <path fill="#A94B32" d="M11 25c0 2 2 4 4 4s4-2 4-4l-8 0z"/>
</svg>
